<?xml version="1.0" encoding="iso-8859-1"?>
<!-- Uploaded to: SVG Repo, www.svgrepo.com, Generator: SVG Repo Mixer Tools -->
<svg fill="#fff" height="800px" width="800px" version="1.1" id="Layer_1" xmlns="http://www.w3.org/2000/svg" xmlns:xlink="http://www.w3.org/1999/xlink" 
	 viewBox="0 0 512.001 512.001" xml:space="preserve">
<g>
	<g>
		<path d="M429.603,172.7c-3.013-5.327-9.474-11.677-23.138-11.677c-14.318,0-37.559,7.006-62.345,18.474
			c-1.186-44.264-8.825-85.697-21.82-117.75C306.157,21.928,282.797,0,256.522,0c-26.275,0-49.637,21.928-65.779,61.747
			c-13.363,32.964-21.066,75.845-21.907,121.526c-24.849-13.898-47.939-22.249-63.3-22.249c-13.665,0-20.125,6.349-23.138,11.677
			c-7.769,13.736,0.865,28.099,13.933,49.839c15.596,25.945,39.167,65.154,39.167,109.269c0,58.531,26.101,103.369,41.66,124.885
			c21.183,29.296,46.554,49.046,68.617,54.043l-0.003,0.015c8.661,2.256,21.052,1.689,31.611-3.617
			c22.572-9.55,47.047-32.873,65.689-62.664c21.563-34.459,33.437-74.469,33.437-112.664c0-44.115,23.569-83.323,39.167-109.269
			C428.74,200.799,437.374,186.436,429.603,172.7z M256.522,33.862c22.723,0,55.283,65.074,53.862,163.599
			c-18.982,11.499-41.727,27.799-60.644,48.637c-12.917-13.709-28.943-27.952-46.906-40.994
			C199.544,102.896,233.043,33.862,256.522,33.862z M277.23,445.072c-3.091,19.053-9.375,28.876-14.973,31.746l0.001,0.002
			c-1.966,1.014-3.873,1.322-6.032,1.307v-0.005c-0.803-0.011-1.733-0.124-2.762-0.338l-0.008,0.035
			c-11.353-2.206-31.095-16.401-48.86-40.969c-13.16-18.2-35.237-56.048-35.237-105.044c0-53.51-26.482-97.564-44.007-126.715
			c-1.26-2.095-2.596-4.319-3.904-6.529c34.553,12.133,83.961,45.278,115.602,84.422c0.001,0.001,0.002,0.002,0.003,0.003
			c12.064,14.925,22.497,31.783,28.446,49.778C273.45,356.87,283.271,406.924,277.23,445.072z M342.642,331.807
			c0,34.247-11.491,68.807-29.781,97.057c1.134-25.967-2.277-54.823-8.448-81.699c-6.845-29.905-14.876-49.802-32.769-74.653
			c0.531-0.617,1.052-1.235,1.597-1.851c0.195-0.22,0.387-0.441,0.585-0.661c31.983-35.725,84.184-62.912,117.183-72.21
			C374.296,226.145,342.642,273.321,342.642,331.807z"/>
	</g>
</g>
</svg>